<svg version="1.0" xmlns="http://www.w3.org/2000/svg" width="1706.667" height="742.667" viewBox="0 0 1280 557"><path d="M258 138.7v28.5c0 15.3-.2 30.7-.6 34.3l-.7 6.5H221v20l18.2.2c15.4.3 18.3.5 18.4 1.8.1.8.2 38.3.2 83.2l.2 81.8h25V228h41v-20h-41v-70h-12.5c-6.9 0-12.5.3-12.5.7zM335 155.5V173h25v-35h-25v17.5zM945 173v35h-37v20h37v167h25l.2-83.3.3-83.2 20.5-.5 20.5-.5.3-9.8.3-9.7H970v-70h-25v35zM1023 155.5V173h25v-35h-25v17.5zM111 203.6c-23.2 4.5-40.7 13.4-55.1 28.1-13 13.3-20.8 26.9-25.7 45.2-2.2 8.3-2.5 11.7-2.6 25.1 0 13.8.3 16.5 2.7 25.3 4.8 17.7 14.3 34.1 26.3 45.9 8.2 8 9.9 9.3 18.3 14.2 23.5 13.7 54.5 16.9 81 8.4 16.5-5.2 26.3-11.1 38-22.6 9.2-9 12.4-13.2 17.8-22.7 6.4-11.5 7.2-10.5-8-10.5l-13.2.1-4 6.5c-8.6 14.1-25.5 26.1-42.2 29.8-9.4 2.1-28.1 2.1-36.5 0-14.9-3.7-32-14.5-40.5-25.5-8-10.5-14.3-26.7-14.3-37.1V309h171.3l-.6-12.3c-1.5-31.5-15.1-57.4-39.7-75.8-8.9-6.7-19.4-11.5-33-15.1-7.4-1.9-33.8-3.4-40-2.2zm33.5 23.1c17.7 4 34.5 16.6 44.8 33.5 4.3 7.2 9 21.1 8.5 25.4l-.3 2.9h-144l.2-4.7c.2-2.7 1.4-8 2.7-11.8 12.2-34.9 49.6-54.1 88.1-45.3zM464.3 204c-17.5 3.7-34.3 14.5-42.5 27.3l-3.3 5.2-.3-14.3-.3-14.2H393l.2 93.2.3 93.3 12.7.3 12.7.3.3-60.8c.4-59.8.4-60.9 2.7-68.3 6-19.8 18.2-33.1 34.5-37.5 9-2.4 26.7-1.7 34.8 1.4 12.9 5 23.3 16 27.7 29.3 3.5 10.7 4.1 22.2 4.1 80V395h24.9l.3-62.8c.4-57.3.6-63.2 2.2-68.2 6.3-19 18.2-31.1 35.1-35.4 6.7-1.8 22.7-2.1 29.2-.6 17.3 4 29.9 17.9 34.9 38.5 1.5 6.1 1.8 15 2.1 67.7l.4 60.8h25l-.4-66.3c-.4-71.2-.3-69.7-5.8-84.7-5.2-13.9-17.7-27.4-31.2-33.9-11.8-5.6-16.9-6.6-34.2-6.5-13.5 0-15.8.3-23 2.7-17.8 5.9-29.7 16.2-41.1 35.3-.9 1.6-1.6.9-4.9-5.6-7.4-13.9-21-25-37-30-7.8-2.5-27.7-3.6-35.2-2zM779.5 204c-38.1 5.6-68 33-78.1 71.5-2.3 8.6-2.7 12.1-2.8 25.5-.1 17 1.7 27.1 7.4 41.2 9.4 23.3 30.7 43.9 53.6 52.1 17 6.1 39.4 7.8 55.9 4.2 21.1-4.5 39.3-16.5 51.6-33.9l4.9-6.9V395h26V208h-26v38.4l-5-7.6c-14.6-22.3-42-35.9-71.5-35.7-6 .1-13.2.5-16 .9zm31.9 23.5c17 3 30.6 10.2 41.3 21.9 21 23.1 25.8 52.9 13.2 83.1-10.3 24.8-31.1 40.3-58.5 43.7-17.5 2.1-37.4-2.3-50.8-11.3-14.8-9.9-25.9-25.7-30.7-43.9-3.1-11.5-3.1-28 0-39.5 10.2-38.1 46.1-60.9 85.5-54zM1153.5 203.7c-6.3.8-19.3 4.6-26 7.5-26.7 11.7-46.9 35.5-54.7 64.6-2.9 11-3.6 32.7-1.4 44.6 3.9 20.6 12 35.9 27.1 51.1 17.8 17.9 35.5 26 62.3 28.6 30.1 2.8 59.2-7.9 80-29.5 10.2-10.7 16-19.6 20.8-32.2l2.4-6.4h-26.5l-3.5 7.3c-4.9 10.3-17.5 22.8-28.7 28.5-14.4 7.4-30.4 10.3-45.7 8.3-32.8-4.4-57.3-27.7-63.2-60.1-4.6-25.6 3.9-53.1 21.5-69.8 22.6-21.3 55.9-26.1 84.6-12.2 13.9 6.7 24.9 17.6 32 31.8l3.6 7.2h25.8l-.8-2.8c-1.7-5.6-6.2-15.7-9.3-20.6-18.6-29.8-50.3-46.9-86-46.5-6.2.1-12.6.4-14.3.6zM335 301.5V395h12.4c10.9 0 12.5-.2 12.8-1.7.2-.9.2-43 0-93.5L360 208h-25v93.5zM1023 301.5V395h25V208h-25v93.5z"/></svg>