<svg xmlns="http://www.w3.org/2000/svg" version="1.1" xmlns:xlink="http://www.w3.org/1999/xlink" width="1000" height="1000"><g clip-path="url(#SvgjsClipPath1204)"><rect width="1000" height="1000" fill="#ffffff"></rect><g transform="matrix(14.084507042253522,0,0,14.084507042253522,0,0)"><svg xmlns="http://www.w3.org/2000/svg" width="71" height="71" viewBox="0 0 71 71" fill="none"><path d="M35.6662 35.2727C35.6662 37.1761 35.3054 38.7955 34.5838 40.1307C33.8679 41.4659 32.8906 42.4858 31.652 43.1903C30.419 43.8892 29.0327 44.2386 27.4929 44.2386C25.9418 44.2386 24.5497 43.8864 23.3168 43.1818C22.0838 42.4773 21.1094 41.4574 20.3935 40.1222C19.6776 38.7869 19.3196 37.1705 19.3196 35.2727C19.3196 33.3693 19.6776 31.75 20.3935 30.4148C21.1094 29.0795 22.0838 28.0625 23.3168 27.3636C24.5497 26.6591 25.9418 26.3068 27.4929 26.3068C29.0327 26.3068 30.419 26.6591 31.652 27.3636C32.8906 28.0625 33.8679 29.0795 34.5838 30.4148C35.3054 31.75 35.6662 33.3693 35.6662 35.2727ZM31.9247 35.2727C31.9247 34.0398 31.7401 33 31.3707 32.1534C31.0071 31.3068 30.4929 30.6648 29.8281 30.2273C29.1634 29.7898 28.3849 29.571 27.4929 29.571C26.6009 29.571 25.8224 29.7898 25.1577 30.2273C24.4929 30.6648 23.9759 31.3068 23.6065 32.1534C23.2429 33 23.0611 34.0398 23.0611 35.2727C23.0611 36.5057 23.2429 37.5455 23.6065 38.392C23.9759 39.2386 24.4929 39.8807 25.1577 40.3182C25.8224 40.7557 26.6009 40.9744 27.4929 40.9744C28.3849 40.9744 29.1634 40.7557 29.8281 40.3182C30.4929 39.8807 31.0071 39.2386 31.3707 38.392C31.7401 37.5455 31.9247 36.5057 31.9247 35.2727ZM38.2124 44V41.8097L46.9226 29.5881H38.1953V26.5455H51.5589V28.7358L42.8402 40.9574H51.576V44H38.2124Z" fill="#3E4265"></path></svg></g></g><defs><clipPath id="SvgjsClipPath1204"><rect width="1000" height="1000" x="0" y="0" rx="0" ry="0"></rect></clipPath></defs></svg>