<?xml version="1.0" standalone="no"?>
<!DOCTYPE svg PUBLIC "-//W3C//DTD SVG 20010904//EN"
 "http://www.w3.org/TR/2001/REC-SVG-20010904/DTD/svg10.dtd">
<svg version="1.0" xmlns="http://www.w3.org/2000/svg"
 width="241.000000pt" height="241.000000pt" viewBox="0 0 241.000000 241.000000"
 preserveAspectRatio="xMidYMid meet">
<metadata>
Created by potrace 1.14, written by Peter Selinger 2001-2017
</metadata>
<g transform="translate(0.000000,241.000000) scale(0.100000,-0.100000)"
fill="#000000" stroke="none">
<path d="M488 2014 c-52 -28 -69 -95 -39 -152 20 -37 14 -48 -24 -44 -28 3
-40 -1 -65 -26 -22 -23 -29 -38 -26 -56 3 -14 113 -274 245 -578 133 -303 239
-553 237 -555 -2 -2 -37 11 -79 29 l-76 33 -51 125 c-29 69 -71 172 -95 230
-196 470 -345 843 -340 849 4 3 10 6 13 6 45 4 67 40 39 63 -16 13 -86 -1 -99
-20 -26 -39 -27 -47 -14 -90 11 -37 280 -698 306 -753 5 -11 41 -98 80 -193
39 -95 80 -194 93 -220 l22 -47 264 -117 c146 -65 266 -116 268 -114 4 3 9
115 18 346 3 85 8 209 10 275 10 274 17 400 21 404 2 2 4 -34 5 -80 0 -46 2
-111 4 -144 3 -63 10 -250 21 -545 7 -206 10 -249 15 -255 4 -3 67 22 199 82
25 11 109 48 187 82 78 35 146 68 151 74 6 7 76 174 157 372 81 198 153 374
161 390 7 17 26 64 43 105 16 41 54 134 84 206 30 73 57 144 61 158 13 53 -90
118 -129 80 -21 -21 -3 -52 32 -56 22 -2 27 -8 25 -23 -2 -11 -111 -281 -241
-600 l-238 -580 -77 -38 c-43 -21 -80 -36 -83 -33 -4 4 31 89 109 266 11 25
26 59 33 75 44 100 300 688 316 725 11 25 21 58 21 74 1 40 -39 74 -87 74 -42
0 -52 6 -38 24 6 7 16 30 22 50 10 31 10 43 -5 73 -20 42 -64 68 -108 63 -17
-2 -160 -74 -317 -161 -158 -87 -300 -159 -317 -161 -18 -3 -46 4 -69 16 -92
49 -166 90 -276 152 -65 36 -120 66 -121 66 -1 0 -38 20 -82 45 -84 48 -120
54 -166 29z m88 -434 c41 -91 81 -178 88 -195 94 -203 396 -878 396 -882 0 -2
-36 15 -79 37 -54 27 -82 47 -87 62 -4 13 -19 50 -35 83 -15 33 -48 107 -72
165 -25 58 -57 132 -72 165 -14 33 -32 74 -40 90 -7 17 -22 50 -33 75 -71 161
-242 560 -242 565 0 3 23 5 50 3 l51 -3 75 -165z m1414 166 c0 -5 -43 -106
-81 -191 -5 -11 -103 -236 -218 -500 l-209 -479 -78 -38 c-42 -21 -78 -38 -79
-38 -2 0 248 555 337 750 11 25 63 140 115 255 52 116 99 218 104 228 7 13 22
17 59 17 28 0 50 -2 50 -4z"/>
</g>
</svg>
